<?xml version="1.0" standalone="no"?><!DOCTYPE svg PUBLIC "-//W3C//DTD SVG 1.1//EN" "http://www.w3.org/Graphics/SVG/1.1/DTD/svg11.dtd"><svg class="icon" width="200px" height="200.00px" viewBox="0 0 1024 1024" version="1.1" xmlns="http://www.w3.org/2000/svg"><path d="M482.60129 216.146581c15.029677 0 27.251613-7.729548 27.251613-17.259355s-12.221935-17.259355-27.251613-17.259355c-15.06271 0-27.251613 7.729548-27.251613 17.259355s12.188903 17.259355 27.251613 17.259355zM625.482323 173.716645c13.047742-7.134968 19.538581-19.621161 14.534193-27.879226-5.037419-8.258065-19.654194-9.149935-32.701935-1.998451-13.031226 7.151484-19.538581 19.621161-14.517678 27.879226 5.020903 8.258065 19.654194 9.149935 32.701936 1.998451z" fill="#FFFFFF" /><path d="M316.449032 240.227097c4.459355-83.868903 11.858581-137.694968 22.148129-161.478194 15.442581-35.674839 39.275355-18.927484 60.168258 0 13.939613 12.618323 34.138839 40.96 60.614194 84.992 46.757161-17.325419 88.311742-17.325419 124.663742 0 16.499613-31.380645 34.188387-72.720516 80.037161-99.823484 16.350968-9.645419 36.864-9.331613 48.953807 29.200516 12.089806 38.548645 12.188903 109.733161 9.331612 150.082065 13.890065 18.712774 98.683871 75.974194 98.683871 161.147871 0 85.190194-36.698839 129.139613-114.043871 162.584774 15.938065 23.006968 34.419613 41.851871 47.566452 91.56542 8.753548 33.147871 11.957677 56.633806 9.628903 70.457806 37.871484 20.050581 54.172903 49.548387 48.887742 88.493419-5.268645 38.961548-29.464774 67.36929-72.604903 85.223226-2.873806 4.508903-0.660645 6.771613 6.606452 6.771613 10.900645 0 17.11071 28.275613-12.387097 28.275613H674.51871c-0.578065 12.766968-5.863226 19.15871-15.838968 19.15871h-80.862968c-12.535742 0-16.070194-5.648516-16.070193-16.466581-7.267097 0.049548-17.672258 0.049548-31.198968 0 2.477419 14.203871-3.303226 21.305806-17.308903 21.305806h-76.139355c-8.786581 0-13.212903-6.011871-13.278968-18.00258-22.148129 2.543484-41.224258 1.453419-57.244903-3.303226-23.997935-7.134968-34.931613-19.224774-9.975742-30.967742 2.642581-1.23871-3.005935-5.086968-14.203871-13.493677-11.197935-8.390194-57.822968-27.185548-57.822968-83.125678 0-19.439484-4.954839-27.020387 5.516387-55.37858 6.986323-18.910968 23.915355-31.545806 50.770581-37.954065-4.228129-62.298839 7.713032-107.899871 35.806968-136.819613-60.184774-9.959226-139.610839-72.91871-139.610839-178.324645 0-70.259613 26.475355-124.977548 79.426065-164.120774z" fill="#FFFFFF" /><path d="M754.555871 658.498065l0.957935 3.633548 1.75071 7.052387 0.825807 3.418839 1.486451 6.556903c4.888774 22.461935 6.44129 39.044129 4.624516 49.796129 37.871484 20.050581 54.172903 49.548387 48.887742 88.493419-5.268645 38.961548-29.464774 67.36929-72.604903 85.223226-2.873806 4.508903-0.660645 6.771613 6.606452 6.771613 10.900645 0 17.11071 28.275613-12.387097 28.275613H674.51871c-0.578065 12.766968-5.863226 19.15871-15.838968 19.15871h-80.862968c-12.535742 0-16.070194-5.648516-16.070193-16.466581l-8.307613 0.033032-22.891355-0.033032c2.477419 14.203871-3.303226 21.305806-17.308903 21.305806h-76.139355c-8.786581 0-13.212903-6.011871-13.278968-18.00258-22.148129 2.543484-41.224258 1.453419-57.244903-3.303226l-2.923355-0.908387-2.791226-0.974452a78.814968 78.814968 0 0 1-2.626064-1.007484l-2.460904-1.057032-2.295741-1.106581c-13.906581-7.101935-16.631742-16.615226 3.138064-25.913806 1.073548-0.495484 0.759742-1.453419-0.743226-2.972903l-1.189161-1.090065-1.519484-1.271742-2.906839-2.262709-7.861677-5.896258-1.354323-0.957936-2.510451-1.602064-7.663484-4.690581-2.56-1.618581-2.642581-1.750709a150.627097 150.627097 0 0 1-1.387355-0.924904l-2.791225-1.981935a124.647226 124.647226 0 0 1-2.840775-2.130581l-2.890322-2.279226c-15.393032-12.667871-31.182452-32.635871-31.182452-65.189161l-0.016516-1.981935-0.115613-3.716129-0.214709-3.468387-0.578065-8.059871-0.165161-3.138065-0.082581-3.171097c-0.016516-8.059871 1.271742-17.176774 6.689032-31.843096 6.986323-18.910968 23.915355-31.545806 50.770581-37.954065-2.807742-41.538065 6.705548-85.421419 28.589419-131.666581a129.948903 129.948903 0 0 0 30.769549 14.947097c17.011613 5.747613 53.148903 15.723355 56.055742 15.723355 2.906839 0 8.91871 1.635097 11.610838 9.116903 4.855742 13.493677 8.803097 74.603355 13.477162 101.342968 3.650065 20.958968 11.660387 41.736258 31.876129 66.642581 7.927742 9.777548 19.076129 26.805677 18.646709 50.869677a3123.530323 3123.530323 0 0 0 0 89.781677h29.795097v-94.356645c0-21.784774 6.622968-36.335484 14.699355-50.605419l7.861677-13.493677a160.751484 160.751484 0 0 0 16.664775-39.258839c7.168-26.244129 10.834581-54.701419 10.999742-85.388387v-4.954839l-0.033033-9.480258-0.08258-8.902194-0.132129-8.175483c-0.066065-3.468387-1.552516-7.828645 4.244645-10.537291 13.873548-6.474323 48.656516-12.519226 94.455742-39.457032l9.232516 12.667871 4.013419 5.665032 2.659097 3.914323c10.24 15.326968 20.26529 34.188387 28.308645 64.611097zM394.339097 74.818065l3.336258 2.93987 1.090064 0.990968c2.477419 2.229677 5.12 4.938323 7.960775 8.142452l2.923354 3.36929c0.990968 1.172645 1.998452 2.411355 3.038968 3.699613l3.171097 4.013419 3.303226 4.343742 3.451871 4.674065 3.550967 5.004387 1.833291 2.626064 3.765677 5.483355 3.897807 5.813678 4.013419 6.144 4.162064 6.474322 4.294194 6.788129 6.656 10.801549 4.608 7.597419c46.740645-17.308903 88.295226-17.308903 124.647226 0l9.414193-18.184258 2.857291-5.450323c14.187355-26.508387 32.768-55.494194 67.765677-76.172387l0.990968-0.561548 1.998451-1.057032 2.031484-0.94142c15.343484-6.639484 33.06529-2.923355 43.932904 31.760516 12.089806 38.548645 12.188903 102.251355 9.331612 142.600259l5.03742 3.501419 5.020903 3.584 5.004387 3.650064 4.954839 3.749162 4.921806 3.848258c1.635097 1.288258 3.253677 2.609548 4.855742 3.947355l4.789678 4.029935c34.915097 30.059355 76.321032 100.500645 68.376774 157.233548-12.58529-28.143484-40.266323-28.424258-53.347097-26.19458-12.288 2.114065-38.647742 11.891613-79.013161 29.365677l-4.393291 1.45342c-39.424 12.866065-80.896 1.32129-100.979612-24.229162-12.601806-22.957419-73.992258-14.137806-98.403097-9.860129-34.634323 6.077935-21.669161 47.962839-99.261936 36.830968-27.879226-4.013419-40.282839-16.664774-79.938064-16.664774-31.777032 0-66.014968 26.112-69.598968 44.362322l-3.352774-49.977806c0-70.259613 26.475355-124.977548 79.426064-164.120774l0.528517-9.546323 1.123096-18.283355 0.924904-13.031225 0.974451-12.403613 1.040516-11.825549 1.090065-11.214451 0.759742-7.134968 1.189161-10.223484 1.23871-9.612387 0.875355-6.077936 0.89187-5.813677 0.908388-5.549419 0.941419-5.268645 0.974452-5.004388 0.990967-4.756645 0.495484-2.262709 1.040516-4.343742 0.528516-2.081033 1.073549-3.947354c0.165161-0.627613 0.363355-1.255226 0.545032-1.866323l1.106581-3.534452 1.139613-3.286709a81.92 81.92 0 0 1 1.750709-4.409807c10.372129-23.948387 24.526452-24.27871 39.027613-16.185806l2.246194 1.32129 1.10658 0.710194 2.246194 1.486451 2.229677 1.585549 2.229678 1.684645 2.229677 1.750709 2.213161 1.816775 2.213162 1.882838z" fill="#FEAE56" /><path d="M382.497032 359.969032c0.512-1.668129 1.420387-2.378323 2.725162-2.147097 16.995097 3.204129 78.187355 15.029677 80.763871 15.624259 1.684645 0.396387 2.246194 1.255226 1.651612 2.576516-3.963871 18.861419-21.520516 33.081806-42.545548 33.081806-23.964903 0-43.404387-18.448516-43.404387-41.207742 0-2.708645 0.280774-5.367742 0.80929-7.927742zM672.635871 361.207742c0.247742 1.800258 0.379871 3.633548 0.379871 5.532903 0 22.759226-19.422968 41.207742-43.387871 41.207742-20.149677 0-37.095226-13.047742-41.984-30.72-0.29729-2.114065 0.611097-3.36929 2.725161-3.765677 16.136258-3.055484 75.148387-13.939613 78.269936-14.451613 2.064516-0.330323 3.402323 0.396387 3.996903 2.180129zM486.763355 383.438452c-6.606452 2.609548-18.894452 8.91871-18.894452 24.509935 0 15.607742 30.125419 50.076903 64 50.076903s62.563097-35.641806 62.563097-48.920774c0-13.278968-9.199484-21.437935-17.886968-25.666064-8.555355-4.145548-16.846452-5.582452-42.264774-5.400775-25.418323 0.198194-40.910452 2.807742-47.516903 5.400775z" fill="#3F0407" /><path d="M532.446968 415.165935c3.550968 0.099097 6.540387 2.312258 7.812129 5.367742a8.704 8.704 0 0 1 2.328774 4.52542l0.148645 1.569032v16.945548a8.720516 8.720516 0 0 1-0.412903 2.626065c5.714581 16.995097 24.757677 27.185548 59.276387 29.877677a8.720516 8.720516 0 0 1-1.354323 17.391484c-33.164387-2.593032-56.253935-12.321032-68.096-29.233548-14.319484 20.215742-35.294968 33.230452-62.513548 38.862451a8.720516 8.720516 0 0 1-3.534452-17.077677c27.185548-5.615484 46.261677-19.422968 57.872517-41.752774a56.931097 56.931097 0 0 1-0.825807-6.309161l0.330323-14.302968 0.198193-1.569032a8.720516 8.720516 0 0 1 8.770065-6.920259z" fill="#3F0407" /><path d="M507.870968 478.174968v44.048516c0 5.020903 2.34529 0.957935 4.492387-5.532903 2.147097-6.490839 7.432258-8.538839 20.56258-8.538839 13.130323 0 42.363871 1.172645 42.363871-5.483355v-21.784774c-11.04929-2.906839-19.720258-6.738581-26.029419-11.47871-6.309161-4.756645-11.759484-11.56129-16.350968-20.413935-4.211613 7.085419-8.010323 12.387097-11.379613 15.938064-3.352774 3.534452-7.927742 7.944258-13.658838 13.245936z" fill="#F1918E" /><path d="M525.427613 444.515097c-3.914323 6.589935-7.366194 11.396129-10.206968 14.402064l-5.731097 5.747613-4.822709 4.574968c-0.858839 0.825806-1.767226 1.651613-2.708645 2.510452-1.783742 1.651613-2.807742 3.980387-2.807742 6.424774v44.048516c0 3.782194 0.445935 6.110968 3.319742 8.670968 3.270194 2.906839 7.597419 2.906839 10.801548 0.941419 1.370839-0.842323 2.312258-1.816774 3.138064-3.005936 1.486452-2.097548 2.873806-5.318194 4.228129-9.414193 0.445935-1.370839 1.552516-2.114065 6.259613-2.394839l3.716129-0.132129 19.819355 0.049549 6.193549-0.099097 5.483354-0.198194 4.773162-0.330322c12.552258-1.205677 17.127226-4.541935 17.127226-13.642323v-21.784774c0-3.963871-2.659097-7.432258-6.490839-8.423226-10.041806-2.642581-17.70529-6.028387-23.023484-10.02529-5.186065-3.914323-9.810581-9.694968-13.824-17.457549a8.720516 8.720516 0 0 0-15.244387-0.462451z m7.316645 20.513032l2.361807 2.939871c2.758194 3.204129 5.731097 6.011871 8.918709 8.40671l2.840774 1.998451a78.12129 78.12129 0 0 0 17.606194 8.357162l2.097548 0.677161v10.884129l-1.651613 0.29729c-2.840774 0.412903-6.408258 0.660645-10.752 0.825807l-7.134967 0.099096-14.104775-0.08258-3.022451 0.049548c-4.888774 0.132129-9.00129 0.660645-12.453161 1.651613l-0.858839 0.264258v-19.439484l5.12-4.839226 4.294193-4.261161 1.849807-1.915871c1.288258-1.370839 2.626065-2.923355 3.963871-4.657548l0.924903-1.255226z" fill="#3F0407" /><path d="M453.648516 325.466839a18.118194 18.118194 0 0 1 23.552-1.156129l1.123097 0.957935 14.55071 12.420129a15.987613 15.987613 0 0 1 0.198193 23.419871 18.118194 18.118194 0 0 1-23.535484 1.156129l-1.123097-0.957935-14.550709-12.420129a15.987613 15.987613 0 0 1-0.21471-23.419871zM568.551226 324.707097a18.101677 18.101677 0 0 1 24.625548-1.321291c6.804645 5.780645 7.713032 15.492129 2.312258 22.296775l-0.957935 1.10658-9.992258 10.24a18.101677 18.101677 0 0 1-24.609033 1.288258 15.971097 15.971097 0 0 1-2.328774-22.296774l0.957936-1.10658 9.992258-10.223484z" fill="#FFFFFF" /><path d="M425.059097 917.190194c6.903742 4.789677 21.355355 7.201032 43.338322 7.201032 21.999484 0 42.215226-1.205677 60.647226-3.600516 3.897806 20.529548 0.396387 33.230452-10.487742 38.102709-16.334452 7.300129-56.980645 5.615484-75.230968 2.807742-12.188903-1.866323-18.266839-7.663484-18.266838-17.391484v-27.119483zM566.866581 914.795355c6.903742 4.789677 21.355355 7.184516 43.354838 7.184516s42.215226-1.189161 60.63071-3.584c3.914323 20.529548 0.412903 33.230452-10.471226 38.10271-16.350968 7.300129-56.980645 5.615484-75.247484 2.807742-12.172387-1.882839-18.266839-7.68-18.266838-17.391484v-27.119484z" fill="#FFFFFF" /><path d="M330.586839 75.280516c8.687484-20.050581 21.768258-28.738065 37.755871-25.566968 11.164903 2.229677 21.768258 9.414194 36.285935 22.561033 2.526968 2.295742 5.219097 5.037419 8.092903 8.241548l2.923355 3.352774 4.921807 5.978839 2.576516 3.303226 2.64258 3.468387 5.532904 7.564387 7.333161 10.553806 7.828645 11.776 3.253678 5.053936 6.771612 10.702451 6.672517 10.867613 4.822709-1.569032c38.234839-12.106323 73.381161-12.717419 105.158194-1.717677l5.268645 1.948903 1.618581 0.660645 6.110967-11.792516 3.369291-6.342194c3.418839-6.35871 6.606452-11.924645 9.975742-17.325419 16.08671-25.880774 34.733419-45.568 60.151742-60.581161 25.434839-15.029677 49.498839-4.82271 61.704258 34.08929 9.364645 29.894194 12.618323 77.080774 10.900645 123.804903l-0.330323 7.38271-0.528516 9.249032 3.022452 1.866323c49.977806 31.677935 94.835613 91.334194 99.261935 157.200516l0.264258 5.499871 0.082581 5.12c0 72.505806-34.403097 124.663742-100.05471 170.149161l-5.384258 3.666581-3.187613 2.081032 8.175484 11.396129c12.899097 18.696258 21.025032 36.599742 29.39871 68.343742 6.936774 26.211097 10.520774 46.691097 10.669419 61.753807l-0.016516 3.385806-0.148645 2.741677 2.708645 1.585549c32.867097 20.083613 48.590452 48.540903 46.410323 84.331355l-0.363355 4.327225-0.495484 4.228129c-4.888774 36.120774-24.889806 63.950452-59.292903 83.142194l-4.558452 2.444387-0.627613 0.29729 0.21471 0.165162c4.145548 3.600516 6.804645 9.216 7.300129 15.194838l0.08258 2.576517-0.148645 2.081032c-1.337806 12.370581-11.363097 20.859871-27.003871 21.817806l-2.989419 0.099097-53.776516-0.016516-0.528516 1.32129c-2.807742 6.110968-7.267097 11.280516-13.262452 15.36l-2.675613 1.701162-2.85729 1.569032c-5.450323 2.758194-11.495226 4.261161-21.173678 4.954839l-3.798709 0.247741-7.068903 0.21471-8.241549 0.082581-4.294193-0.033032-8.225033-0.198194-3.897806-0.165161-3.732645-0.21471-6.953291-0.578065c-8.819613-0.891871-15.690323-2.26271-19.885419-4.096-10.636387-4.591484-16.400516-8.241548-19.175226-13.989161l-0.743226-1.816774-0.495483-1.618581-15.888517-0.016516-0.330322 1.205678c-2.824258 8.456258-9.414194 15.029677-19.257807 19.323871-5.103484 2.246194-9.909677 3.550968-16.631741 4.294193l-3.534452 0.330323-5.598968 0.330322-6.523871 0.198194-11.85858 0.082581c-17.62271 0-31.661419-1.882839-40.216775-5.020904l1.321291 0.478968a8.753548 8.753548 0 0 1-1.932387-0.462452 25.6 25.6 0 0 1-8.91871-5.400774 25.6 25.6 0 0 1-6.540387-8.241548l-1.057032-2.444387-0.231226-0.693678-4.31071 0.330323c-14.104774 0.80929-26.987355 0.066065-38.647742-2.279226l-4.921806-1.106581-4.773162-1.304774c-14.616774-4.343742-24.79071-10.24-28.721548-18.299871-3.584-7.38271-1.75071-14.236903 4.228129-20.149677l1.734194-1.585549 1.734193-1.387354-5.912774-4.409807-5.202581-3.138064-12.188903-7.845162-7.283613-4.987871-4.211613-3.15458c-21.553548-17.242839-34.237935-38.598194-34.237935-66.361807 0-52.339613 16.68129-86.792258 50.027355-101.475096l3.501419-1.45342 3.352774-1.222193-0.462451-3.088516c-4.954839-36.550194 2.741677-72.307613 22.907871-107.024517l3.286709-5.450322 1.139613-1.816774-6.837677-3.402323c-75.974194-38.928516-123.408516-97.428645-127.438452-180.306581l-0.21471-5.813677-0.066064-5.780645c0-71.019355 27.912258-126.084129 83.373419-164.285936l1.387355-0.941419 0.660645-11.197936 1.45342-22.016 1.057032-13.790967 1.123097-13.080774 1.205677-12.387097 0.627613-5.912774 0.660645-5.747613 1.32129-10.96671 1.436904-10.256516 1.486451-9.579355 1.569033-8.852645c2.34529-12.420129 4.938323-22.610581 7.76258-30.587871l1.23871-3.303226 1.007484-2.427871z m34.353548-8.456258c-7.101935-1.420387-12.667871 2.295742-18.332903 15.376516-1.469935 3.385806-2.873806 7.432258-4.228129 12.188903l-0.990968 3.699613-1.618581 6.722065-0.792774 3.633548-1.536 7.795613-0.743226 4.162065-0.726709 4.343742-1.403871 9.216-1.354323 9.909677-1.271742 10.636387-1.222193 11.330065-1.156129 12.040258-1.090065 12.717419-1.024 13.444129-0.957935 14.137807-1.321291 22.511483a8.720516 8.720516 0 0 1-3.963871 6.837678c-53.842581 35.03071-80.549161 85.735226-80.549161 153.104516 0 86.973935 50.176 145.886968 133.565936 183.758452 4.954839 2.26271 6.656 8.456258 3.550967 12.932129-27.400258 39.308387-36.764903 79.277419-28.374709 120.435612a8.720516 8.720516 0 0 1-6.490839 10.206968c-34.304 8.324129-51.447742 37.227355-51.447742 89.484387 0 20.446968 8.720516 36.418065 24.443871 50.043871l3.947355 3.237162 4.327226 3.138064 4.17858 2.85729 8.869162 5.747613 10.157419 6.35871 10.718968 8.076387 2.312258 1.899355c2.097548 1.83329 3.468387 3.336258 4.442838 5.285161 2.477419 4.954839 0.627613 10.801548-4.558451 13.245936l-2.031484 0.990967-3.138065 1.651613-2.097548 1.255226-0.710193 0.495484-0.891871 0.693677-0.379871 0.412904c1.156129 2.34529 7.729548 6.160516 18.00258 9.216 12.634839 3.749161 27.581935 5.053935 44.791742 3.831742l-0.08258-5.450323 0.099096-3.864774 0.264258-3.138065 2.26271-16.516129c1.684645-11.643871 2.444387-19.918452 2.444387-29.828129 0-6.144-1.651613-11.230968-5.450322-17.622709l-2.741678-4.261162-11.429161-17.176774a132.029935 132.029935 0 0 1-13.60929-29.134452c-5.169548-15.756387-8.720516-37.508129-10.702452-65.337806l-0.759742-12.288-0.578065-13.047742c-0.231226-6.705548-0.396387-13.691871-0.495483-20.975484l-0.082581-14.897548a8.720516 8.720516 0 1 1 17.441032 0l0.082581 14.468129 0.280774 13.724903c0.115613 4.459355 0.264258 8.786581 0.445936 12.981678l0.627612 12.221935c1.783742 29.646452 5.252129 52.257032 10.306065 67.716129 3.072 9.381161 6.887226 17.325419 11.875097 25.38529l5.41729 8.192 7.68 11.528258 1.255226 1.998452c5.285161 8.902194 7.878194 16.945548 7.878193 26.524903 0 9.083871-0.578065 16.846452-1.816774 26.376258l-2.840774 20.645162-0.29729 3.072-0.115613 3.402322v0.957936c0 3.253677 0.198194 6.160516 0.59458 8.720516 0.280774 0.644129 0.495484 1.32129 0.611097 2.048l0.132129 1.585548c0.941419 3.666581 2.394839 6.342194 4.228129 8.010323a16.466581 16.466581 0 0 0 3.319742 1.602064c5.780645 2.114065 16.317935 3.666581 30.026323 3.930839l4.195097 0.033032h4.046451l10.24-0.165161 5.483355-0.21471 4.591484-0.330322c5.598968-0.561548 9.282065-1.502968 12.8-3.055484 6.573419-2.873806 9.661935-6.44129 10.24-11.429161l-0.033032-0.297291V846.451613a8.720516 8.720516 0 0 1 17.292387-1.569032l0.148645 1.569032v85.223226h13.807484v-85.223226a8.720516 8.720516 0 0 1 17.308903-1.569032l0.148645 1.569032v93.117935l0.066065 0.825807 0.033032 2.064516c0.115613 2.312258 0.710194 3.352774 3.732645 4.921806l1.453419 0.710194 5.615484 2.477419c1.32129 0.578065 3.402323 1.123097 6.110968 1.602065l2.147097 0.363355 4.954839 0.627613 2.774709 0.280774 6.110968 0.462451 6.771613 0.330323 7.333161 0.165161h7.597419l6.639484-0.115613 5.54942-0.231225c8.456258-0.495484 12.998194-1.502968 16.46658-3.253678 7.134968-3.633548 10.983226-8.390194 12.20542-14.748903l-0.264258 0.891871-0.033033-0.825807c0-8.059871-1.090065-13.278968-4.39329-22.511483l-1.403871-3.831742c-5.12-13.592774-6.936774-20.843355-6.936774-32.619355 0-2.807742 0.198194-5.598968 0.578064-8.423226 0.231226-1.849806 0.941419-4.541935 1.981936-7.861677l1.800258-5.433807 3.484903-9.546322 4.228129-10.801549 3.699613-9.199484 18.052129-43.60258 2.543484-6.391742 1.882839-5.004387c13.047742-36.599742 17.606194-66.114065 13.923097-88.394323a8.720516 8.720516 0 1 1 17.19329-2.85729c4.261161 25.666065-0.72671 57.971613-14.699355 97.114838l-2.972903 7.89471-5.615484 13.840516-15.393032 37.029161-4.723613 11.726452-2.725162 7.052387-2.295741 6.210065-1.734194 5.169548-0.875355 3.055484a20.645161 20.645161 0 0 0-0.462451 2.279226 46.872774 46.872774 0 0 0-0.412904 6.144c0 8.175484 1.090065 13.444129 4.442839 22.792258l1.420387 3.864774c3.930839 10.487742 5.896258 17.176774 6.573419 25.154065h51.910194c8.91871 0 12.254968-2.609548 12.667871-6.342194l0.016516-1.222194-0.115613-1.073548-0.330322-1.585548c-0.082581-0.379871-0.082581-0.594581 0.132129-0.594581-13.130323 0-21.388387-8.472774-13.972646-20.166194a8.720516 8.720516 0 0 1 4.029936-3.385806c40.398452-16.730839 62.480516-42.611613 67.319742-78.319484 4.756645-35.228903-9.612387-61.241806-44.345807-79.624258a8.720516 8.720516 0 0 1-4.508903-9.166452c2.064516-12.254968-1.024-34.749935-9.480258-66.774709-7.399226-27.961806-14.253419-43.81729-24.724645-59.639742l-2.147097-3.171097-3.15458-4.492387-10.24-14.302968a8.720516 8.720516 0 0 1 2.526967-12.337548c71.663484-45.188129 108.197161-94.885161 108.197162-166.152258 0-66.147097-47.764645-128.363355-98.551742-157.332645a8.720516 8.720516 0 0 1-4.376775-8.192c3.633548-51.398194 1.090065-107.371355-8.951741-139.379613-8.91871-28.45729-20.678194-33.461677-36.170323-24.295226-22.792258 13.460645-39.523097 31.116387-54.222452 54.784-3.171097 5.070452-6.193548 10.355613-9.463742 16.433548l-2.526967 4.707097-10.570323 20.430452a8.720516 8.720516 0 0 1-11.462193 3.815226c-34.08929-16.235355-73.216-16.235355-117.875613 0.313806a8.720516 8.720516 0 0 1-10.504258-3.683097l-3.352775-5.565935-6.523871-10.603355-6.22658-9.893161-5.945807-9.182968-5.648516-8.472774-5.367742-7.762581-5.070451-7.052387-4.773162-6.342194c-6.160516-7.960774-11.528258-14.03871-16.086709-18.151225-12.238452-11.082323-20.925935-16.978581-27.978323-18.382452z" fill="#3F0407" /><path d="M525.956129 622.823226c49.845677 0 97.478194-9.348129 139.495226-25.666065 28.077419-10.900645 53.677419-24.939355 75.742968-41.372903-13.130323 53.132387-104.679226 94.290581-215.651097 94.290581-111.153548 0-202.818065-41.306839-215.717161-94.587871 55.147355 41.273806 132.525419 67.319742 216.130064 67.319742z" fill="#C5262E" /><path d="M301.35329 557.534968c14.203871 58.747871 110.344258 101.243871 224.189936 101.243871 113.630968 0 209.639226-42.330839 224.123871-100.913549a8.720516 8.720516 0 0 0-13.691871-9.083871c-21.504 16.053677-46.410323 29.679484-73.661936 40.249807-42.099613 16.350968-88.741161 25.054968-136.357161 25.054968-79.508645 0-155.631484-24.212645-210.910968-65.569033a8.720516 8.720516 0 0 0-13.708387 9.017807z m34.237936 25.269677l5.169548 2.923355c53.214968 29.299613 118.090323 45.799226 185.195355 45.799226 49.779613 0 98.568258-9.116903 142.649806-26.227613L677.16129 601.847742a345.880774 345.880774 0 0 0 32.569807-15.624258l5.433806-3.072-1.139613 1.189161c-33.57729 33.362581-105.604129 57.013677-188.449032 57.013678-83.026581 0-155.152516-23.733677-188.663742-57.195355l-1.304774-1.354323zM367.516903 234.479484a8.720516 8.720516 0 0 1 11.660387 4.013419l3.138065 6.35871 2.807742 5.466839 2.444387 4.591483 1.569032 2.791226c0-0.165161 0.066065-0.264258 0.198194-0.330322l0.858838-0.115613c3.468387-0.280774 8.753548-1.783742 15.624258-4.52542a8.720516 8.720516 0 0 1 6.490839 16.185807c-19.24129 7.696516-31.661419 8.737032-37.656774-1.420387l-1.271742-2.213161-2.873806-5.25213-1.585549-3.055483-3.501419-6.936775a680.101161 680.101161 0 0 1-1.915871-3.897806 8.720516 8.720516 0 0 1 4.013419-11.660387z" fill="#3F0407" /><path d="M283.383742 788.199226c36.285935 0 65.701161-27.94529 65.701161-62.397936 0-34.452645-29.415226-62.397935-65.701161-62.397935s-84.69471 34.138839-84.69471 68.608c0 11.115355 8.753548 51.315613 14.104774 60.349935 5.186065 8.720516 40.943484 30.356645 65.073549 42.116129-5.12-5.681548-4.211613-26.475355-2.378323-37.062193 1.172645-6.771613 3.534452-8.968258 7.89471-9.216z" fill="#FEAE56" /><path d="M348.787613 243.365161a8.720516 8.720516 0 0 1 9.067355 8.340645l0.330322 9.315097 0.165162 8.258065 0.016516 3.749161c0 9.992258-6.969806 17.606194-19.043097 23.122581a8.720516 8.720516 0 1 1-7.267097-15.855484c6.540387-2.972903 8.869161-5.532903 8.869161-7.267097l-0.08258-7.432258-0.231226-8.505806a733.035355 733.035355 0 0 0-0.181677-4.657549 8.720516 8.720516 0 0 1 8.357161-9.083871zM367.715097 290.865548c6.738581-3.072 18.811871-3.022452 35.047226-0.693677a8.720516 8.720516 0 1 1-2.47742 17.259355c-12.915613-1.849806-22.709677-1.899355-25.319226-0.693678-0.611097 0.280774-1.75071 1.156129-3.303225 2.543484l-2.659097 2.526968-3.270194 3.303226-3.798709 4.046451c-0.693677 0.72671-1.387355 1.486452-2.097549 2.295742a8.720516 8.720516 0 1 1-12.965161-11.676903l2.56-2.807742 4.657548-4.938322c5.830194-5.962323 10.173935-9.579355 13.625807-11.164904zM257.651613 662.74271c48.34271-10.636387 91.581935 13.444129 99.823484 51.332129 9.794065 45.089032-17.408 91.86271-70.226581 88.030967-41.273806-3.022452-58.136774-25.368774-46.046968-62.298838a8.720516 8.720516 0 0 1 16.565678 5.433806c-8.390194 25.666065 0.330323 37.243871 30.736516 39.457032 39.308387 2.85729 59.524129-31.925677 51.92671-66.923354-6.077935-27.94529-39.688258-46.658065-79.046194-38.003613-40.976516 9.00129-62.100645 47.170065-51.133935 89.798193 6.936774 26.970839 31.380645 45.204645 74.950193 54.536258a8.720516 8.720516 0 0 1-3.633548 17.061162c-49.432774-10.570323-79.36-32.933161-88.196129-67.253678-13.361548-51.860645 13.278968-99.972129 64.264258-111.170064zM204.552258 257.32129a7.927742 7.927742 0 1 1 14.831484 5.615484c-8.092903 21.404903-17.62271 32.140387-30.521807 28.193032-4.740129-1.453419-8.043355-4.145548-11.065806-8.208516l-1.899355-2.758193-1.502968-2.378323-0.59458 0.462452-1.932387 1.651613-1.007484 0.941419-2.147097 2.246194-2.378323 2.741677-2.692129 3.352774-4.789677 6.309162-12.221935 16.813419c-10.388645 14.269935-23.452903 16.450065-29.150968 1.536l-2.47742-4.921807-4.525419-9.249032-3.963871-8.48929-3.385806-7.696516-0.990968-2.26271-1.684645-3.683097a53.776516 53.776516 0 0 0-0.743226-1.453419l-1.288258-2.229678a7.779097 7.779097 0 0 0-1.618581-1.899354c-0.611097-0.462452-1.536-0.330323-5.433806 2.64258-8.472774 6.44129-16.152774 14.748903-23.04 24.939355a7.927742 7.927742 0 1 1-13.146839-8.885677 120.220903 120.220903 0 0 1 26.590968-28.672c9.034323-6.903742 17.62271-8.059871 24.741161-2.543484 3.633548 2.807742 5.879742 6.110968 8.819613 12.453161l5.219097 11.825549 3.303226 7.134967 5.879742 12.106323 1.569032 3.15458 1.486451-1.783741 14.03871-19.290839 3.732645-4.921807 3.270194-4.096 2.923355-3.418838 1.370838-1.486452 2.609549-2.593032c1.271742-1.189161 2.543484-2.229677 3.831742-3.204129l2.659096-1.833291c8.307613-5.351226 15.029677-2.543484 19.951484 4.872259l2.361807 3.716129c1.618581 2.477419 2.725161 3.517935 3.963871 3.897806 0.825806 0.247742 2.708645-1.420387 5.235613-5.84671l1.783742-3.36929a108.345806 108.345806 0 0 0 4.029935-9.43071zM93.877677 87.997935a7.927742 7.927742 0 0 1 7.795613 6.507355l0.132129 1.420387 0.033033 55.659355 0.165161 4.31071 0.165161 1.717677a7.89471 7.89471 0 0 0 0.099097 0.561549l0.21471 0.59458c-0.049548-0.066065 0-0.115613 0.181677-0.181677l2.939871-0.72671 3.055484-0.875355 6.309161-2.147096 11.776-4.541936 6.672516-2.477419c1.057032-0.379871 2.081032-0.743226 3.088516-1.073549l5.681549-1.783741c15.227871-4.39329 23.419871-2.923355 30.93471 6.507354 4.872258 6.110968 6.210065 13.890065 5.813677 24.823742l-0.842323 13.873549-0.033032 2.923355h20.628645a7.927742 7.927742 0 0 1 7.795613 6.507354l0.132129 1.420387a7.927742 7.927742 0 0 1-6.507355 7.812129l-1.420387 0.115613h-23.783226c-7.399226 0-11.445677-5.153032-12.420129-12.188903l-0.231225-2.279226-0.082581-2.427871 0.099097-3.038967 0.759742-11.875097 0.066064-1.403871c0.264258-7.432258-0.528516-12.07329-2.378322-14.385548-2.460903-3.072-7.101935-3.303226-17.308904-0.13213l-5.12 1.717678c-0.908387 0.330323-1.866323 0.660645-2.85729 1.040516l-13.328516 5.12-4.90529 1.783742-1.536 0.528516c-12.221935 4.046452-20.364387 3.848258-25.616517-2.807742-2.576516-3.237161-3.550968-6.044903-3.914322-11.726451l-0.165161-4.244646-0.016517-5.318193v-51.365161a7.927742 7.927742 0 0 1 7.927742-7.927742zM895.653161 71.38271a7.927742 7.927742 0 0 1 8.40671 7.432258l0.660645 12.056774 0.495484 11.065806 0.280774 10.107871c0.049548 3.204129 0.082581 6.243097 0.066065 9.13342l-0.132129 8.158967-0.330323 7.184517a152.27871 152.27871 0 0 1-0.247742 3.237161c-1.552516 18.002581-5.565935 27.747097-17.011613 25.434839L831.917419 153.930323c-6.920258-1.387355-9.149935-0.858839-9.562838-0.148646-0.512 0.908387-0.660645 2.923355-0.330323 6.540388l1.436903 11.280516 0.231226 2.609548 0.611097 13.394581c0.545032 16.945548-1.816774 23.750194-13.493678 26.590967-10.041806 2.477419-22.098581-3.501419-37.574193-16.846451a7.927742 7.927742 0 1 1 10.355613-12.007226c11.792516 10.173935 20.083613 14.286452 23.452903 13.477161 0.528516-0.148645 0.957935-0.825806 1.205677-2.593032l0.198194-2.114064 0.066065-2.923355-0.082581-3.831742-0.660645-13.245936-0.264258-2.378322-0.693678-5.03742c-1.387355-9.975742-1.337806-15.36 1.800258-20.826838 4.541935-7.89471 13.592774-10.074839 26.425807-7.481807l52.339613 10.553807 0.346838-1.304775a57.806452 57.806452 0 0 0 1.040516-6.474322l0.280775-2.741678 0.214709-2.807742 0.297291-6.22658 0.132129-7.101936-0.033033-7.944258-0.214709-8.803096-0.363355-9.661936-0.528516-10.504258-0.330323-5.565936a7.927742 7.927742 0 0 1 7.415742-8.406709zM941.997419 237.006452a7.927742 7.927742 0 0 1 7.663484 8.175483 280.906323 280.906323 0 0 1-3.435355 35.873033c-2.097548 12.882581-11.379613 17.672258-22.792258 13.592774l-2.609548-0.990968-2.576516-1.205677-2.758194-1.502968-3.138064-1.915871-5.84671-3.897806-9.628903-6.738581-2.956387-2.097548-2.229678-1.486452c-2.576516-1.552516-3.666581-1.354323-4.954838 1.007484l-1.040517 2.196645-2.048 4.872258c-9.331613 21.900387-16.119742 28.820645-32.222967 23.419871-2.725161-0.908387-5.615484-1.932387-8.670968-3.055484l-9.694968-3.66658-10.752-4.327226a7.927742 7.927742 0 0 1 6.011871-14.666323l10.45471 4.195097 9.381161 3.567484 4.294194 1.536 4.013419 1.387355c3.402323 1.139613 5.070452 0.858839 7.845161-4.261162l1.651613-3.303225 3.088516-7.035871c8.48929-19.951484 18.002581-23.733677 36.401549-11.561291l11.230968 7.762581 3.270193 2.163613 2.692129 1.684645 2.279226 1.288258 1.981935 0.957935 2.609549 1.057033 0.792774 0.396387 0.165161-1.073549a265.083871 265.083871 0 0 0 3.336258-34.700387 7.927742 7.927742 0 0 1 8.192-7.663484z" fill="#3F0407" /><path d="M530.514581 402.531097c9.083871 0.941419 16.813419-1.948903 17.292387-6.490839 0.478968-4.541935-6.490839-8.984774-15.558194-9.94271-9.083871-0.957935-16.813419 1.948903-17.292387 6.490839-0.478968 4.541935 6.490839 8.984774 15.558194 9.94271zM567.048258 407.948387c9.083871 0.941419 16.813419-1.948903 17.292387-6.490839 0.478968-4.541935-6.490839-8.984774-15.558193-9.942709-9.083871-0.957935-16.813419 1.948903-17.292387 6.490838-0.478968 4.541935 6.490839 8.984774 15.558193 9.94271z" fill="#622427" /></svg>